<svg width="1080" height="1080" viewBox="0 0 1080 1080" fill="none" xmlns="http://www.w3.org/2000/svg">
<path d="M449.427 444.173V571.61H436.677V534.298H358.573V571.61H345.823V526.09C345.823 499.397 352.979 479.069 367.302 465.11C381.636 451.152 402.391 444.173 429.573 444.173H449.427ZM358.573 522.444H436.677V456.006H429.573C406.157 456.006 388.558 461.59 376.782 472.756C365 483.923 358.933 500.485 358.573 522.444Z" fill="black"/>
<path d="M604.714 571.61V444.173H617.464V571.61H604.714Z" fill="black"/>
<path d="M688.836 526.09H683.19V514.256H688.648C701.273 514.256 711.07 511.834 718.044 506.985C725.029 502.126 728.523 494.6 728.523 484.402C728.523 464.251 715.346 454.173 689.003 454.173C675.654 454.173 665.305 457.517 657.961 464.194C650.628 470.876 646.961 480.402 646.961 492.777V571.61H634.211V492.777C634.211 482.584 636.451 473.694 640.94 466.11C645.44 458.527 651.815 452.673 660.065 448.548C668.315 444.413 677.961 442.34 689.003 442.34C705.263 442.34 718.044 446.079 727.336 453.548C736.628 461.006 741.273 471.293 741.273 484.402C741.273 491.194 739.93 497.173 737.253 502.34C734.586 507.496 730.82 511.527 725.961 514.444C721.112 517.36 715.409 518.819 708.857 518.819V520.444C714.924 520.444 720.326 522.058 725.065 525.277C729.799 528.501 733.32 533.084 735.628 539.027L748.732 571.61H734.898L726.878 549.027C723.846 540.652 719.445 534.735 713.669 531.277C707.904 527.819 699.628 526.09 688.836 526.09Z" fill="black"/>
<path d="M357.799 590.078H349.237L347.362 594.224H346.195L352.987 579.474H354.07L360.841 594.224H359.695L357.799 590.078ZM357.383 589.161L353.508 580.641L349.654 589.161H357.383Z" fill="black"/>
<path d="M390.723 586.911H391.765V592.432C391.109 593.057 390.327 593.531 389.411 593.849C388.494 594.172 387.52 594.328 386.494 594.328C385.036 594.328 383.713 594.01 382.536 593.37C381.369 592.719 380.452 591.823 379.786 590.682C379.119 589.547 378.786 588.265 378.786 586.849C378.786 585.432 379.119 584.156 379.786 583.015C380.452 581.88 381.369 580.989 382.536 580.349C383.713 579.698 385.041 579.37 386.515 579.37C387.598 579.37 388.588 579.547 389.494 579.89C390.411 580.224 391.187 580.724 391.827 581.39L391.161 582.099C390.536 581.489 389.838 581.047 389.077 580.765C388.312 580.489 387.463 580.349 386.536 580.349C385.27 580.349 384.124 580.635 383.098 581.203C382.083 581.76 381.286 582.536 380.702 583.536C380.129 584.526 379.848 585.63 379.848 586.849C379.848 588.057 380.14 589.161 380.723 590.161C381.306 591.151 382.103 591.927 383.119 592.495C384.129 593.052 385.27 593.328 386.536 593.328C388.228 593.328 389.624 592.885 390.723 591.995V586.911Z" fill="black"/>
<path d="M423.541 593.245V594.224H413.354V579.474H423.229V580.432H414.437V586.245H422.312V587.203H414.437V593.245H423.541Z" fill="black"/>
<path d="M456.354 579.474V594.224H455.479L445.417 581.411V594.224H444.333V579.474H445.25L455.292 592.286V579.474H456.354Z" fill="black"/>
<path d="M484.62 594.328C483.172 594.328 481.87 594.01 480.703 593.37C479.547 592.719 478.641 591.823 477.974 590.682C477.307 589.547 476.974 588.265 476.974 586.849C476.974 585.432 477.307 584.156 477.974 583.015C478.641 581.88 479.547 580.989 480.703 580.349C481.87 579.698 483.172 579.37 484.62 579.37C485.688 579.37 486.667 579.547 487.557 579.89C488.458 580.224 489.229 580.734 489.87 581.411L489.203 582.099C488.021 580.932 486.505 580.349 484.662 580.349C483.422 580.349 482.297 580.635 481.287 581.203C480.271 581.76 479.474 582.536 478.891 583.536C478.318 584.526 478.037 585.63 478.037 586.849C478.037 588.073 478.318 589.182 478.891 590.182C479.474 591.172 480.271 591.943 481.287 592.495C482.297 593.052 483.422 593.328 484.662 593.328C486.495 593.328 488.005 592.739 489.203 591.557L489.87 592.265C489.229 592.932 488.458 593.448 487.557 593.807C486.651 594.156 485.672 594.328 484.62 594.328Z" fill="black"/>
<path d="M514.545 589.141V594.224H513.461V589.141L507.524 579.474H508.711L514.045 588.161L519.378 579.474H520.482L514.545 589.141Z" fill="black"/>
<path d="M468.5 563.5V567C477.3 567 482.5 566.667 484 566.5C493.6 566.1 512.667 545.667 521 535.5L512 528L499 542C489 551.6 482.5 554.333 480.5 554.5C480.5 536.5 492 526.5 497.5 523C501.9 520.2 509.667 521.167 513 522C519.8 525.2 525.833 531.667 528 534.5C528 534.9 539 546.667 544.5 552.5C552.1 562.1 564 566.167 569 567L581 567.5L581.5 488C579.9 492.4 572.5 499.667 569 502.751V554.5C567.4 555.3 559.333 549.5 555.5 546.5L552.5 543.5L547 537.5L545 535.5L541 530.5L537 526L535.5 524.5L533 522L528 517L525.5 515L523 513.5C522 512.833 518.1 511.1 510.5 509.5C502.9 507.9 494.667 510.833 491.5 512.5C489.167 513.5 483.1 517.4 477.5 525C471.9 532.6 469.833 541.667 469.5 545.5L469 549L468.5 552.5V555.5V561V562.5V563.5Z" fill="black" stroke="black" stroke-width="0.1"/>
<path d="M468.5 448V527V527.5C470.1 524.7 477.5 516.333 481 512.5V460.5C487.5 458 510.5 485.5 519.5 496C526.7 504.4 538.833 506.5 544 506.5C556.4 506.5 567.167 497.5 571 493C579.8 482.2 581.667 467.5 581.5 461.5V447.222H570C566.4 447.222 562.833 448.741 561.5 449.5L557.5 451.5C555.9 452.3 548.833 458.5 545.5 461.5L532.5 475.5L529 480L538 487.5L546.5 478C560.1 463.2 567.5 459.5 569.5 459.5V463.5L568.5 470L567 475L566 478C562 487.6 552 492.667 547.5 494C544.7 494.8 540.667 494.333 539 494C533 492 528.5 487.833 527 486L509.5 466.5C497.5 452.5 487.5 448.333 484 448H468.5Z" fill="black" stroke="black" stroke-width="0.1"/>
</svg>
